<svg width="24" height="16" viewBox="0 0 24 16" fill="none" xmlns="http://www.w3.org/2000/svg">
<path d="M18.5938 5.69629C21.1631 6.6123 22.7646 8.39033 22.7646 10.2861C22.7645 11.346 22.2731 12.3545 21.3828 13.2109L21.1182 13.4658L21.2822 13.7949C21.6334 14.4971 22.1181 15.1043 22.4541 15.4824C21.2927 15.4007 20.3187 15.0395 19.5879 14.6631L19.377 14.5537L19.1602 14.6484C17.9255 15.1841 16.4542 15.5 14.8633 15.5C12.0142 15.5 9.5774 14.5 8.19531 13.0674C8.26353 13.0687 8.33241 13.0713 8.40137 13.0713C11.1643 13.0712 13.691 12.2773 15.54 10.9697C17.3877 9.66301 18.5947 7.81103 18.5947 5.71387C18.5947 5.70801 18.5938 5.70215 18.5938 5.69629ZM22.8281 15.876V15.8779C22.8259 15.8757 22.8245 15.8726 22.8223 15.8701C22.8244 15.8722 22.8263 15.8742 22.8281 15.876ZM8.40137 0.5C10.6347 0.500064 12.6338 1.11652 14.0605 2.08691C15.4898 3.05901 16.3016 4.34991 16.3018 5.71387C16.3018 7.078 15.4899 8.3696 14.0605 9.3418C12.6338 10.3122 10.6347 10.9286 8.40137 10.9287C6.81125 10.9287 5.33953 10.6091 4.10352 10.0762L3.88672 9.9834L3.67676 10.0908C2.94555 10.4675 1.97097 10.8297 0.808594 10.9111C1.14448 10.5326 1.6299 9.92505 1.98145 9.22461L2.14648 8.89551L1.88184 8.64062C0.990341 7.77976 0.5 6.77341 0.5 5.71387C0.500166 4.34997 1.31213 3.05899 2.74121 2.08691C4.16804 1.11647 6.16791 0.5 8.40137 0.5Z" fill="#FFA500" stroke="black"/>
</svg>
