<svg width="19" height="25" viewBox="0 0 19 25" fill="none" xmlns="http://www.w3.org/2000/svg">
<path d="M9.375 0.5C14.2765 0.5 18.25 4.47346 18.25 9.375C18.25 10.2887 18.1707 11.0128 17.9541 11.7441C17.7364 12.4793 17.3728 13.2466 16.7764 14.2383C15.5709 16.2427 13.4913 19.0449 9.92773 24.2109C9.66099 24.5963 9.08898 24.5962 8.82227 24.2109C5.25871 19.0449 3.1791 16.2427 1.97363 14.2383C1.37722 13.2466 1.01363 12.4793 0.795898 11.7441C0.579307 11.0128 0.5 10.2887 0.5 9.375C0.5 4.47346 4.47346 0.5 9.375 0.5ZM9.375 4.96875C6.94148 4.96875 4.96875 6.94148 4.96875 9.375C4.96875 11.8085 6.94148 13.7812 9.375 13.7812C11.8085 13.7812 13.7812 11.8085 13.7812 9.375C13.7812 6.94148 11.8085 4.96875 9.375 4.96875Z" fill="#FFA500" stroke="black"/>
</svg>
